<?xml version="1.0" encoding="UTF-8"?>
<svg width="46px" height="46px" viewBox="0 0 46 46" version="1.1" xmlns="http://www.w3.org/2000/svg" xmlns:xlink="http://www.w3.org/1999/xlink">
    <!-- Generator: Sketch 48.2 (47327) - http://www.bohemiancoding.com/sketch -->
    <title>icon-https</title>
    <desc>Created with Sketch.</desc>
    <defs></defs>
    <g id="SPC-and-toolbar-icons" stroke="none" stroke-width="1" fill="none" fill-rule="evenodd">
        <g id="icon-https" fill="#242424">
            <g transform="translate(9.000000, 3.000000)" id="Shape">
                <path d="M5.05,16.3 L4.9,16.45 C2.3,18.98 1,21.98 1,25.45 C1,28.92 2.22,31.87 4.65,34.3 C7.08,36.73 10.03,37.95 13.5,37.95 C16.97,37.95 19.92,36.73 22.35,34.3 C24.78,31.87 26,28.91 26,25.45 C26,21.98 24.72,18.97 22.15,16.4 C19.75,14.1 16.87,12.95 13.5,12.95 C10.2,12.95 7.38,14.06 5.05,16.3 Z M19.7,3.6 C18.17,2.07 16.38,1.2 14.35,1 L12.6,1 C10.67,1.2 8.98,2.03 7.55,3.5 C5.92,5.07 5.07,7.02 5,9.35 L5,14.9 C7.37,12.93 10.2,11.95 13.5,11.95 C16.73,11.95 19.57,12.93 22,14.9 L22,9.2 C21.93,7.5 21.5,6.03 20.7,4.8 C20.47,4.43 20.13,4.03 19.7,3.6 Z M14.45,0 C16.68,0.2 18.65,1.15 20.35,2.85 C20.88,3.38 21.28,3.85 21.55,4.25 C22.45,5.65 22.93,7.3 23,9.2 L23,15.8 L23.1,15.9 C25.7,18.5 27,21.68 27,25.45 C27,29.18 25.68,32.37 23.05,35 C20.42,37.63 17.23,38.95 13.5,38.95 C9.77,38.95 6.58,37.63 3.95,35 C1.32,32.37 0,29.18 0,25.45 C0,21.72 1.32,18.53 3.95,15.9 L4,15.75 L4,9.3 C4.07,6.73 5.02,4.57 6.85,2.8 C8.42,1.13 10.32,0.2 12.55,8.8817842e-16 L14.45,0 Z M22.35,24.4 C22.65,24.7 22.8,25.05 22.8,25.45 C22.8,25.85 22.65,26.2 22.35,26.5 C22.05,26.8 21.7,26.95 21.3,26.95 L20.9,26.95 C20.6,28.38 19.9,29.65 18.8,30.75 C17.33,32.22 15.57,32.95 13.5,32.95 C11.43,32.95 9.67,32.22 8.2,30.75 C6.73,29.28 6,27.52 6,25.45 C6,23.38 6.73,21.62 8.2,20.15 C9.67,18.68 11.43,17.95 13.5,17.95 C15.6,17.95 17.38,18.68 18.85,20.15 C19.92,21.22 20.6,22.48 20.9,23.95 L21.3,23.95 C21.7,23.95 22.05,24.1 22.35,24.4 Z M21.3,24.95 L20,24.95 C19.9,23.55 19.4,22.32 18.5,21.25 L17.8,20.55 C16.67,19.55 15.4,19.03 14,19 L14,23 C14.5,23.1 14.93,23.33 15.3,23.7 C15.77,24.23 16,24.82 16,25.45 C16,26.15 15.77,26.73 15.3,27.2 L15.25,27.25 C14.78,27.72 14.2,27.95 13.5,27.95 C12.87,27.95 12.28,27.72 11.75,27.25 C11.25,26.82 11,26.22 11,25.45 C11,24.78 11.25,24.2 11.75,23.7 C12.12,23.33 12.53,23.1 13,23 L13,19 C11.4,19.1 10.03,19.72 8.9,20.85 C7.63,22.12 7,23.65 7,25.45 C7,27.25 7.63,28.78 8.9,30.05 C10.17,31.32 11.7,31.95 13.5,31.95 C15.3,31.95 16.83,31.32 18.1,30.05 C19.2,28.95 19.83,27.6 20,26 L20,25.95 L21.3,25.95 C21.43,25.95 21.55,25.9 21.65,25.8 C21.75,25.7 21.8,25.58 21.8,25.45 C21.8,25.32 21.75,25.2 21.65,25.1 C21.55,25 21.43,24.95 21.3,24.95 Z M14.55,24.4 C14.25,24.1 13.9,23.95 13.5,23.95 C13.1,23.95 12.75,24.1 12.45,24.4 C12.15,24.7 12,25.05 12,25.45 C12,25.85 12.15,26.2 12.45,26.5 C12.75,26.8 13.1,26.95 13.5,26.95 C13.9,26.95 14.25,26.8 14.55,26.5 C14.85,26.2 15,25.85 15,25.45 C15,25.05 14.85,24.7 14.55,24.4 Z"></path>
            </g>
        </g>
    </g>
</svg>